<svg xmlns="http://www.w3.org/2000/svg" xmlns:xlink="http://www.w3.org/1999/xlink" viewBox="0 0 1000 1000">
  <defs>
    <radialGradient id="a" cx="487.3" cy="460.1" fx="1139.8" fy="773.5" r="723.8" gradientUnits="userSpaceOnUse">
      <stop offset=".4" stop-color="#fbfbfb"/>
      <stop offset=".5" stop-color="#f8f8f8"/>
      <stop offset=".6" stop-color="#efefef"/>
      <stop offset=".7" stop-color="#e0e0e0"/>
      <stop offset=".8" stop-color="#ccc"/>
      <stop offset=".8" stop-color="#c9c9c9"/>
    </radialGradient>
    <radialGradient id="b" cx="232" cy="380.7" fx="232" fy="380.7" r="330.9" gradientUnits="userSpaceOnUse">
      <stop offset="0" stop-color="#d94d40"/>
      <stop offset="1" stop-color="#b12b2c"/>
    </radialGradient>
    <radialGradient id="d" cx="747.9" cy="538.8" fx="635.6" fy="538.8" r="120" gradientUnits="userSpaceOnUse">
      <stop offset="0" stop-color="#fff"/>
      <stop offset=".4" stop-color="#f8f8f8"/>
      <stop offset="1" stop-color="#e6e6e6"/>
    </radialGradient>
    <radialGradient id="e" cx="746.6" cy="534" fx="862" fy="589.4" r="128" xlink:href="#a"/>
    <linearGradient id="c" x1="555.4" y1="743.9" x2="454.4" y2="438.3" gradientUnits="userSpaceOnUse">
      <stop offset="0" stop-color="#2f2f2f"/>
      <stop offset=".3" stop-color="#2b2b2b"/>
      <stop offset=".7" stop-color="#201f1f"/>
      <stop offset=".8" stop-color="#191718"/>
    </linearGradient>
  </defs>
  <path d="m869 569 62.3 143c9.7-13 22.5-62.5 24.5-74.4 2.2-14 5.6-28.6 6.6-48.2A525.5 525.5 0 0 0 954 472c-4.3-22.9-9.4-40.2-11.3-46.7A534 534 0 0 0 886 303.5l-.7.2a465.5 465.5 0 0 0-390.7-214c-251 0-456 201.2-467.3 453.6h-.5a525.5 525.5 0 0 0 15 143.3A448.1 448.1 0 0 0 79.3 782c12.5 24.4 34.6 66.1 60.6 98.8l580.6-206.8c11 3.2 24.7 5.4 36.8 5 69.8-3 124.6-55.8 124.6-124.6" style="fill:url(#a)"/>
  <path d="M554.6 538.3c12.3 0 17.6-3.8 20-16.4 3.7-19 9.3-37.6 16.8-55.7 22-52.8 60.9-85 115.6-102.8 55-17.9 110.3-34.2 165.3-51.8A448.4 448.4 0 0 0 495 104C253 104 55.6 298 44.9 541.1c169.9-1 339.8-2 509.7-2.8Z" style="fill:url(#b)"/>
  <path d="M945.5 544.3a503.2 503.2 0 0 0-8.1-72.3 458 458 0 0 0-11-45A513.3 513.3 0 0 0 872 309.7 1770.2 1770.2 0 0 0 704.3 363c-27.8 10.4-55.1 22-80 48.1a175.2 175.2 0 0 0-35.1 54.8c-7.5 18-13 36.7-16.8 55.6-2.4 12.7-7.7 16.4-19.9 16.4-169.4.8-338.7 1.9-508.1 2.9a506.2 506.2 0 0 0 14.5 138c11.2 43 26.6 73.6 36 91.8 12 23.5 29.4 53 54.5 84.5l567.1-201.8a120 120 0 1 1 145.8-151.9l69.6 171a571 571 0 0 0 13.6-87.2c1-17 .5-29.7 0-41Z" style="fill:url(#c)"/>
  <circle cx="747.9" cy="538.8" r="120" style="fill:url(#d)"/>
  <circle cx="747.9" cy="538.8" r="76.3" style="fill:url(#e)"/>
</svg>
